<?xml version="1.0" ?><svg data-name="Layer 1" id="Layer_1" viewBox="0 0 100 100" xmlns="http://www.w3.org/2000/svg"><defs><style>.cls-1{fill:#4d4d4d;}</style></defs><title/><path class="cls-1" d="M84.32654,36.94922A35.59932,35.59932,0,1,1,74.2746,20.13153l4.24078-4.24072A41.46794,41.46794,0,0,0,8.5,46v8.5a41.5,41.5,0,0,0,83,0V46a41.30186,41.30186,0,0,0-2.38239-13.8418ZM50,90A35.55587,35.55587,0,0,1,15.48621,62.7851a38.48012,38.48012,0,0,0,69.02759,0A35.55587,35.55587,0,0,1,50,90Z"/><path class="cls-1" d="M93.40521,19.50037L88.34009,14.4353a2.9183,2.9183,0,0,0-4.12726,0L46.80109,51.847,30.89044,35.93634a2.91841,2.91841,0,0,0-4.12726,0l-5.06512,5.06512a2.91841,2.91841,0,0,0,0,4.12726l17.97406,17.974L39.67236,63.103l5.06512,5.06512a2.91841,2.91841,0,0,0,4.12726,0L93.40521,23.62769A2.91849,2.91849,0,0,0,93.40521,19.50037Z"/></svg>